<svg xmlns="http://www.w3.org/2000/svg" width="179.225" height="33.045" viewBox="0 0 179.225 33.045"><defs><style>.a{fill:#fff;}</style></defs><path class="a" d="M154.844,21.165c0-6.727,5.373-11.771,12.282-11.771,6.8,0,12.1,4.9,12.1,11.661,0,6.836-4.935,11.99-12.245,11.99A12.1,12.1,0,0,1,154.844,21.165Zm-63.422,0c0-6.727,5.374-11.771,12.282-11.771,6.8,0,12.1,4.9,12.1,11.661,0,6.836-4.935,11.99-12.245,11.99A12.1,12.1,0,0,1,91.422,21.165ZM71.317,29.938v2.34H64.664v-28h6.763v7.676a11.8,11.8,0,0,1,6.909-2.559c6.616,0,10.527,5.593,10.527,11.7,0,6.251-3.984,11.734-10.309,11.734A9.51,9.51,0,0,1,71.317,29.938ZM38.491,21.092c0-6.8,4.862-11.7,11.479-11.7,6.47,0,11.039,4.277,11.039,12.282v.194a11.566,11.566,0,0,1,0,1.158H45.218c.585,2.668,2.7,3.947,5.263,3.947,2.1,0,3.523-1.4,4.658-2.843l.2-.264s3.315,1.912,4.87,2.846l.431.261a11.738,11.738,0,0,1-10.491,5.849C43.244,32.826,38.491,28.622,38.491,21.092Zm105.9,11.186V9.833h6.8V32.278Zm-17.582,0L117.412,9.833h7.6l4.9,13.123,4.605-13.123h7.165l-8.81,22.444Zm-104.18,0L18.46,20.215,14.439,32.278H8.554L0,9.833H7.165l4.459,12.428L15.719,9.833h5.447l4.313,12.5L29.9,9.833h7.055L28.512,32.278Zm121.1-28.147a4.113,4.113,0,0,1,8.225-.074,4.174,4.174,0,0,1-4.2,4.168A4.027,4.027,0,0,1,143.731,4.131Z"/></svg>